Coordinates
version=1
nRows=12
nColumns=42
inDegrees=yes

Units are S.I. units (second, meters, Newtons, ...)
If the header above contains a line with 'inDegrees', this indicates whether rotational values are in degrees (yes) or radians (no).

endheader
time	pelvis_tilt	pelvis_list	pelvis_rotation	pelvis_tx	pelvis_ty	pelvis_tz	hip_flexion_r	hip_adduction_r	hip_rotation_r	knee_angle_r	knee_adduction_r	knee_angle_r_beta	ankle_angle_r	subtalar_angle_r	mtp_angle_r	hip_flexion_l	hip_adduction_l	hip_rotation_l	knee_angle_l	knee_adduction_l	knee_angle_l_beta	ankle_angle_l	subtalar_angle_l	mtp_angle_l	lumbar_extension	lumbar_bending	lumbar_rotation	arm_flex_r	arm_add_r	arm_rot_r	elbow_flex_r	pro_sup_r	wrist_flex_r	wrist_dev_r	arm_flex_l	arm_add_l	arm_rot_l	elbow_flex_l	pro_sup_l	wrist_flex_l	wrist_dev_l
      0.40000000	     12.42148510	      2.93060109	      4.21656120	     -0.64537584	      0.92337919	     -0.22365932	    -25.99434205	      6.80925545	    -24.58324782	      1.27244514	     -1.89549181	      0.02220836	     22.08501574	     16.80976249	     -8.98980258	     16.94437733	      5.41333502	    -33.70311723	     16.44515295	     -9.45653693	      0.28702207	     16.98116439	     36.95097997	     -8.98980258	    -43.65201015	     -0.28020470	     -1.42508474	      6.35329284	    -11.61940687	      7.53863495	     39.78863327	     90.00000001	      0.00000000	      0.00000000	     -5.93844714	    -10.14275830	     14.20948044	     47.26291491	     90.00000001	      0.00000000	      0.00000000
      0.41000000	     12.51400157	      2.76464554	      4.13679283	     -0.63835508	      0.92174398	     -0.22395952	    -26.67764083	      6.94971582	    -24.63016591	      1.18545517	     -1.83358762	      0.02069010	     22.26274776	     16.86707521	     -8.98540818	     16.96555802	      5.45846351	    -33.51900582	     16.69103408	     -9.71565877	      0.29131350	     16.97423915	     36.94981904	     -8.98540818	    -43.64074606	     -0.32995088	     -1.33352241	      6.19004889	    -11.56626532	      7.58553480	     39.65465032	     90.00000001	      0.00000000	      0.00000000	     -5.96853602	    -10.11769507	     14.20420704	     47.18548476	     90.00000001	      0.00000000	      0.00000000
      0.42000000	     12.60552421	      2.61963843	      4.01527632	     -0.63116149	      0.92013359	     -0.22425632	    -27.33871396	      7.03492528	    -24.58297325	      1.16213068	     -1.77046049	      0.02028301	     22.45463180	     16.96597738	     -8.98026520	     16.97537705	      5.51380252	    -33.17455049	     17.12700920	    -10.00549780	      0.29892270	     16.89879625	     36.82277777	     -8.98026520	    -43.61845534	     -0.42789499	     -1.22569734	      6.00024477	    -11.50648375	      7.64381075	     39.50545893	     90.00000001	      0.00000000	      0.00000000	     -6.02919750	    -10.10785739	     14.19546680	     47.08899065	     90.00000001	      0.00000000	      0.00000000
      0.43000000	     12.61031771	      2.41935502	      3.97088910	     -0.62391538	      0.91835344	     -0.22476571	    -27.93524281	      7.14135843	    -24.36890708	      1.11577331	     -1.58760979	      0.01947392	     22.84999973	     17.27320878	     -8.96288464	     17.21252228	      5.43665946	    -32.64953780	     18.05544710	    -10.26745248	      0.31512700	     16.62563111	     36.10536871	     -8.96288464	    -43.47879363	     -0.41954850	     -1.23206538	      5.86721733	    -11.42360534	      7.77206347	     39.29980233	     90.00000001	      0.00000000	      0.00000000	     -6.11838722	    -10.07692446	     14.18751214	     46.91701527	     90.00000001	      0.00000000	      0.00000000
      0.44000000	     12.66975721	      2.30861453	      3.70208336	     -0.61646624	      0.91687686	     -0.22488662	    -28.41062958	      7.15843671	    -24.28571564	      1.32545753	     -1.75986664	      0.02313360	     22.96279977	     17.31411306	     -8.95636635	     17.15949695	      5.53289720	    -32.12643715	     18.57416374	    -10.62968906	      0.32418031	     16.40883030	     35.81642438	     -8.95636635	    -43.40376563	     -0.64952433	     -1.01761014	      5.64290344	    -11.37354743	      7.82346773	     39.14510361	     90.00000001	      0.00000000	      0.00000000	     -6.16962835	    -10.05866021	     14.16433664	     46.83110229	     90.00000001	      0.00000000	      0.00000000
      0.45000000	     12.61516310	      2.12734724	      3.59266930	     -0.60920660	      0.91532117	     -0.22530056	    -28.80270017	      7.27677140	    -23.87034541	      1.43723753	     -1.82387160	      0.02508453	     23.49381291	     17.52970549	     -8.93165591	     17.46299608	      5.43549163	    -31.27974639	     19.77899475	    -10.84974586	      0.34520858	     15.40632066	     34.06867728	     -8.93165591	    -43.23477743	     -0.71735923	     -0.99167053	      5.55993117	    -11.25868969	      7.95528364	     38.80447218	     90.00000001	      0.00000000	      0.00000000	     -6.19966250	    -10.00346645	     14.13896253	     46.51283089	     90.00000001	      0.00000000	      0.00000000
      0.46000000	     12.53440643	      2.02083514	      3.37653297	     -0.60197810	      0.91402487	     -0.22562458	    -29.01395197	      7.34233733	    -23.43786980	      1.75858765	     -2.17572840	      0.03069314	     23.72480657	     17.45739519	     -8.88324837	     17.52986847	      5.62478204	    -29.60472976	     20.54492310	    -10.93929797	      0.35857655	     14.49393011	     31.14924340	     -8.88324837	    -43.05900980	     -0.91992386	     -0.87376677	      5.47742203	    -11.14362021	      8.00806965	     38.43968856	     90.00000001	      0.00000000	      0.00000000	     -6.20333884	     -9.94289532	     14.05608529	     46.22816674	     90.00000001	      0.00000000	      0.00000000
      0.47000000	     12.50356746	      2.00772514	      3.12752082	     -0.59463562	      0.91310880	     -0.22596165	    -29.20211153	      7.20901315	    -22.99849677	      2.31609837	     -2.39822508	      0.04042354	     23.98389909	     17.08650864	     -8.84093432	     17.45586600	      5.87265457	    -28.14867296	     21.22259371	    -11.00254676	      0.37040414	     13.31310105	     28.48074050	     -8.84093432	    -42.95871001	     -1.23662768	     -0.80109213	      5.36557102	    -11.00039402	      8.00024253	     38.11248333	     90.00000001	      0.00000000	      0.00000000	     -6.17605194	     -9.93415948	     14.03471349	     45.94623117	     90.00000001	      0.00000000	      0.00000000
      0.48000000	     12.46440664	      2.08631523	      2.95129576	     -0.58747741	      0.91257339	     -0.22669208	    -29.33150817	      7.01137452	    -22.41165956	      2.94501476	     -2.68134136	      0.05140020	     23.95974137	     16.36861753	     -8.76433600	     17.11516177	      6.49821528	    -25.47622290	     21.48593473	    -10.84365648	      0.37500030	     12.21143258	     24.16198740	     -8.76433600	    -42.89607786	     -1.55810497	     -0.85517802	      5.30154468	    -10.81226498	      7.88374280	     37.78449078	     90.00000001	      0.00000000	      0.00000000	     -6.13001292	     -9.91773901	     14.01212542	     45.72584829	     90.00000001	      0.00000000	      0.00000000
      0.49000000	     12.49194285	      2.12883183	      2.57227257	     -0.58001117	      0.91228515	     -0.22692036	    -29.40110525	      6.71004881	    -22.00028037	      3.85574385	     -2.93729183	      0.06729543	     24.12174944	     15.95176420	     -8.73438909	     16.97921571	      6.57230959	    -24.89222803	     22.24830564	    -10.86456775	      0.38830619	     11.09124788	     22.58373448	     -8.73438909	    -42.86309521	     -1.99026162	     -0.73317649	      5.21281263	    -10.67524809	      7.90856014	     37.45409897	     90.00000001	      0.00000000	      0.00000000	     -6.09198923	     -9.91534405	     14.04143808	     45.44432493	     90.00000001	      0.00000000	      0.00000000
      0.50000000	     12.47821574	      2.28008973	      2.39407359	     -0.57285565	      0.91235944	     -0.22776400	    -29.44951167	      6.38836777	    -21.26400727	      4.73195739	     -3.17664664	      0.08258824	     24.01236352	     14.86283548	     -8.66352654	     16.55754287	      7.15184420	    -22.72302688	     22.47181004	    -10.64726002	      0.39220707	      9.89322296	     18.74398811	     -8.66352654	    -42.85585605	     -2.37571017	     -0.84493908	      5.18192100	    -10.45389552	      7.74860143	     37.10497773	     90.00000001	      0.00000000	      0.00000000	     -6.01926367	     -9.95339050	     14.09088185	     45.20966028	     90.00000001	      0.00000000	      0.00000000
      0.51000000	     12.49247081	      2.35968036	      2.14077319	     -0.56559778	      0.91267216	     -0.22834915	    -29.46965761	      6.13128183	    -20.45573168	      5.68380091	     -3.46545096	      0.09920104	     23.71474469	     13.71247546	     -8.58855432	     16.25623888	      7.34819560	    -21.82050544	     22.94188859	    -10.51997366	      0.40041149	      9.02679838	     16.81903385	     -8.58855432	    -42.86841104	     -2.75652865	     -0.85022170	      5.13828712	    -10.27831374	      7.69262457	     36.79943292	     90.00000001	      0.00000000	      0.00000000	     -5.94799208	    -10.00363496	     14.16630225	     44.98273818	     90.00000001	      0.00000000	      0.00000000
